<svg width="46" height="46" viewBox="0 0 46 46" fill="none" xmlns="http://www.w3.org/2000/svg">
<path d="M16.3579 39.8C24.9579 39.8 24.9579 39.672 26.4159 39.24C28.3199 38.674 21.0359 33.631 16.3579 33.631C11.6799 33.631 7.88794 35.011 7.88794 36.715C7.88794 38.419 11.6799 39.8 16.3579 39.8Z" fill="black"/>
<path d="M35.8849 13.569L36.2799 13.995L35.9339 14.462C24.7199 29.626 18.2579 36.492 15.5169 35.571C13.8469 35.01 12.1729 33.323 10.4989 30.874C9.91082 30.0093 9.36226 29.1184 8.8549 28.204C8.58617 27.7253 8.33107 27.2391 8.0899 26.746C7.93603 26.4449 7.82496 26.1238 7.7599 25.792L7.7519 25.753C7.73665 25.6687 7.71831 25.5849 7.6969 25.502C6.92675 22.6008 7.02757 19.5371 7.98678 16.6929C8.94599 13.8486 10.7212 11.3496 13.091 9.50736C15.4608 7.66513 18.3205 6.56118 21.3134 6.33314C24.3064 6.1051 27.3003 6.76305 29.9219 8.22497L29.9799 8.26097C31.8299 9.54897 33.7969 11.318 35.8849 13.569ZM29.2079 9.43197C26.8259 8.113 24.1088 7.5232 21.3943 7.7359C18.6798 7.94859 16.0877 8.9544 13.9402 10.6283C11.7927 12.3022 10.1846 14.5703 9.31563 17.1507C8.4467 19.7311 8.35534 22.51 9.0529 25.142C9.0829 25.257 9.0969 25.322 9.1289 25.487L9.1359 25.521C9.1779 25.738 9.2519 25.948 9.3559 26.144C9.4899 26.425 9.7589 26.947 10.0799 27.522C10.5664 28.3986 11.0922 29.2528 11.6559 30.082C13.1689 32.296 14.6689 33.807 15.9639 34.242C17.6899 34.822 24.1889 27.942 34.4589 14.099C32.5949 12.13 30.8439 10.575 29.2079 9.43197Z" fill="black"/>
<path d="M29.207 9.43197C26.825 8.11331 24.108 7.52376 21.3937 7.73661C18.6794 7.94945 16.0875 8.9553 13.9402 10.6291C11.7929 12.303 10.1849 14.571 9.31595 17.1512C8.44705 19.7315 8.35561 22.5102 9.053 25.142C9.083 25.257 9.097 25.322 9.129 25.487L9.136 25.521C9.178 25.738 9.252 25.948 9.356 26.143C9.49 26.425 9.759 26.946 10.08 27.522C10.5664 28.3986 11.0923 29.2529 11.656 30.082C13.169 32.295 14.669 33.807 15.964 34.242C17.69 34.822 24.189 27.942 34.459 14.099C32.594 12.13 30.844 10.575 29.207 9.43197Z" fill="#EC1C79"/>
<path d="M25.2751 39.66C23.2576 39.6763 21.2569 39.2931 19.3883 38.5323C17.5197 37.7716 15.8202 36.6484 14.3878 35.2276C12.9554 33.8067 11.8186 32.1164 11.0427 30.254C10.2669 28.3916 9.86743 26.3941 9.86743 24.3765C9.86743 22.359 10.2669 20.3614 11.0427 18.4991C11.8186 16.6367 12.9554 14.9463 14.3878 13.5255C15.8202 12.1047 17.5197 10.9815 19.3883 10.2207C21.2569 9.45998 23.2576 9.07671 25.2751 9.09303C29.3071 9.12564 33.1629 10.7502 36.0025 13.6129C38.8421 16.4756 40.4354 20.3444 40.4354 24.3765C40.4354 28.4087 38.8421 32.2775 36.0025 35.1402C33.1629 38.0028 29.3071 39.6274 25.2751 39.66ZM25.2751 38.259C28.9564 38.259 32.487 36.7966 35.0901 34.1935C37.6932 31.5904 39.1556 28.0599 39.1556 24.3785C39.1556 20.6972 37.6932 17.1666 35.0901 14.5635C32.487 11.9604 28.9564 10.498 25.2751 10.498C21.5939 10.498 18.0634 11.9604 15.4604 14.5634C12.8574 17.1664 11.3951 20.6968 11.3951 24.378C11.3951 28.0592 12.8574 31.5897 15.4604 34.1927C18.0634 36.7957 21.5939 38.259 25.2751 38.259Z" fill="black"/>
<path d="M25.276 38.258C28.9576 38.258 32.4884 36.7955 35.0917 34.1922C37.695 31.5889 39.1575 28.0581 39.1575 24.3765C39.1575 20.6949 37.695 17.1641 35.0917 14.5608C32.4884 11.9575 28.9576 10.495 25.276 10.495C21.5944 10.495 18.0636 11.9575 15.4603 14.5608C12.857 17.1641 11.3945 20.6949 11.3945 24.3765C11.3945 28.0581 12.857 31.5889 15.4603 34.1922C18.0636 36.7955 21.5944 38.258 25.276 38.258Z" fill="white"/>
<path fill-rule="evenodd" clip-rule="evenodd" d="M14.892 27.22L13.054 21.685H14.664L15.622 24.865L16.682 21.669H17.994L19.054 24.865L20.012 21.685H21.59L19.752 27.22H18.425L17.318 24.056L16.218 27.22H14.892ZM22.194 27.181V21.685H26.614V22.98H23.702V23.813H26.34V25.014H23.702V25.886H26.654V27.181H22.194ZM28.774 27.181V23.02H27.125V21.685H31.946V23.02H30.297V27.181H28.774ZM32.614 27.181V21.685H34.137V23.742H36.092V21.685H37.615V27.181H36.092V25.093H34.137V27.181H32.614Z" fill="black"/>
<path d="M8.09803 20.032C7.91172 19.9389 7.77002 19.7756 7.7041 19.578C7.63818 19.3805 7.65344 19.1648 7.74653 18.9785C7.83963 18.7922 8.00292 18.6505 8.20049 18.5846C8.39806 18.5186 8.61372 18.5339 8.80003 18.627L11.044 19.749C11.1414 19.792 11.229 19.8543 11.3015 19.9322C11.3741 20.01 11.43 20.1018 11.4661 20.2019C11.5021 20.3021 11.5174 20.4085 11.5111 20.5147C11.5048 20.6209 11.4769 20.7247 11.4293 20.8199C11.3816 20.915 11.3152 20.9995 11.2339 21.0682C11.1526 21.1369 11.0583 21.1884 10.9565 21.2196C10.8548 21.2507 10.7477 21.2609 10.6419 21.2494C10.5361 21.238 10.4338 21.2052 10.341 21.153L8.09803 20.032ZM7.84003 23.751C7.65094 23.6637 7.50424 23.5049 7.43223 23.3095C7.36022 23.1141 7.36878 22.8981 7.45603 22.709C7.54329 22.5199 7.70209 22.3732 7.89751 22.3012C8.09292 22.2292 8.30894 22.2377 8.49803 22.325L10.742 23.361C10.8409 23.4008 10.9306 23.4603 11.0057 23.5358C11.0809 23.6114 11.1399 23.7014 11.1792 23.8004C11.2184 23.8995 11.2372 24.0055 11.2342 24.112C11.2312 24.2185 11.2066 24.3233 11.1619 24.42C11.1172 24.5168 11.0532 24.6034 10.974 24.6746C10.8948 24.7459 10.8019 24.8002 10.701 24.8345C10.6001 24.8687 10.4933 24.8821 10.387 24.8737C10.2808 24.8654 10.1774 24.8355 10.083 24.786L7.84003 23.752V23.751Z" fill="black"/>
</svg>
